<?xml version="1.0" encoding="UTF-8" standalone="no"?>
<svg
   version="1.0"
   width="292pt"
   height="66pt"
   viewBox="0 0 291.99999 65.999997"
   preserveAspectRatio="xMidYMid"
   id="svg24"
   sodipodi:docname="drill.svg"
   inkscape:version="1.2.1 (9c6d41e410, 2022-07-14)"
   xmlns:inkscape="http://www.inkscape.org/namespaces/inkscape"
   xmlns:sodipodi="http://sodipodi.sourceforge.net/DTD/sodipodi-0.dtd"
   xmlns="http://www.w3.org/2000/svg"
   xmlns:svg="http://www.w3.org/2000/svg">
  <defs
     id="defs28" />
  <sodipodi:namedview
     id="namedview26"
     pagecolor="#ffffff"
     bordercolor="#ffffff"
     borderopacity="1"
     inkscape:showpageshadow="false"
     inkscape:pageopacity="0"
     inkscape:pagecheckerboard="false"
     inkscape:deskcolor="#728086"
     inkscape:document-units="pt"
     showgrid="false"
     showguides="false"
     inkscape:zoom="2.8284271"
     inkscape:cx="137.53227"
     inkscape:cy="12.020815"
     inkscape:window-width="1920"
     inkscape:window-height="1027"
     inkscape:window-x="1352"
     inkscape:window-y="-8"
     inkscape:window-maximized="1"
     inkscape:current-layer="g3397"
     showborder="true">
    <sodipodi:guide
       position="0,2.0009741"
       orientation="0,-1"
       id="guide341"
       inkscape:locked="false" />
    <sodipodi:guide
       position="0,2.0009741"
       orientation="1,0"
       id="guide343"
       inkscape:locked="false" />
    <sodipodi:guide
       position="72.805239,53.85706"
       orientation="0,-1"
       id="guide5327"
       inkscape:locked="false" />
    <sodipodi:guide
       position="72.805241,53.857059"
       orientation="1,0"
       id="guide5329"
       inkscape:locked="false" />
    <sodipodi:guide
       position="72.805239,36.796872"
       orientation="0,-1"
       id="guide5331"
       inkscape:locked="false" />
    <sodipodi:guide
       position="72.430665,53.857059"
       orientation="1,0"
       id="guide5336"
       inkscape:locked="false" />
    <sodipodi:guide
       position="72.430667,53.857059"
       orientation="0,-1"
       id="guide5338"
       inkscape:locked="false" />
    <sodipodi:guide
       position="171.56251,36.79687"
       orientation="0,-1"
       id="guide5395"
       inkscape:locked="false" />
    <sodipodi:guide
       position="148.49121,29.092338"
       orientation="0,-1"
       id="guide5397"
       inkscape:locked="false" />
    <sodipodi:guide
       position="164.82816,41.578119"
       orientation="0,-1"
       id="guide5399"
       inkscape:locked="false" />
  </sodipodi:namedview>
  <g
     id="g3397"
     style="display:inline">
    <g
       id="g4999">
      <g
         id="g5075">
        <g
           id="g5081" />
      </g>
    </g>
    <g
       id="g3998"
       style="stroke:#000000;stroke-width:1.875;stroke-linejoin:round;stroke-dasharray:none;stroke-opacity:1"
       transform="translate(1.0606602,1.0606602)">
      <g
         id="g3979"
         style="stroke:#000000;stroke-width:1.875;stroke-linejoin:round;stroke-dasharray:none;stroke-opacity:1">
        <path
           style="color:#000000;fill:#000000;stroke:#000000;stroke-width:1.875;stroke-linejoin:round;stroke-dasharray:none;stroke-opacity:1"
           d="m 72.429687,0.0546875 v 11.7128905 0.375 l 0.002,0.375 16.625,-0.05664 h 0.002 5.912109 c 1.949781,0 3.656925,0.05744 5.119134,0.169921 h 0.004 0.004 c 1.44198,0.08319 2.69039,0.346537 3.75,0.78125 1.53432,0.630172 2.57546,1.472109 3.17773,2.519532 0.61464,1.06895 0.92969,2.361465 0.92969,3.898437 0,1.749152 -0.26771,3.125265 -0.76953,4.128906 v 0.002 l -0.002,0.002 c -0.48075,0.988206 -1.26043,1.908089 -2.35937,2.759765 -1.1336,0.863074 -2.54121,1.422155 -4.24805,1.669922 -1.732389,0.251477 -3.900901,0.378906 -6.498042,0.378906 h -5.021484 l -16.251954,0.05664 v 0.002 h -0.378906 l 0.0039,35.322266 H 89.431641 V 40.923828 h 6.966796 l 17.273443,23.228516 h 20.9082 L 113.2207,36.732422 c 3.85931,-1.941909 6.90453,-4.335653 9.02344,-7.234375 l 0.002,-0.002 c 2.2393,-3.025646 3.34766,-6.928952 3.34766,-11.666016 0,-3.453831 -0.71913,-6.349542 -2.18164,-8.6621092 -1.42118,-2.3202965 -3.35534,-4.2096513 -5.78516,-5.65625 h -0.002 C 115.23136,2.0700263 112.66058,1.1300011 109.91992,0.69726562 107.19904,0.26765191 103.96121,0.0546875 100.20313,0.0546875 Z m 0.75,0.75 h 27.023443 c 3.72967,0 6.93158,0.2115449 9.5996,0.6328125 2.64768,0.4180535 5.12337,1.3227401 7.4375,2.7167969 h 0.002 v 0.00195 c 2.33447,1.3895666 4.17316,3.1869966 5.53125,5.4042969 V 9.5625 l 0.002,0.00195 c 1.37225,2.168153 2.06836,4.914183 2.06836,8.265625 0,4.621514 -1.07368,8.347205 -3.20117,11.220703 l -0.002,0.002 c -2.11324,2.891792 -5.15022,5.307989 -9.13477,7.244141 L 112.08789,36.5 133.04492,63.402344 H 114.04883 L 96.775391,40.173828 h -8.09375 V 63.402344 H 73.179687 l -0.0039,-33.826172 15.88086,-0.05469 h 0.002 5.019531 c 2.621598,0 4.820883,-0.127666 6.605462,-0.386718 1.80911,-0.262613 3.34916,-0.86516 4.59766,-1.816407 v -0.002 h 0.002 c 1.16883,-0.905844 2.0338,-1.912255 2.57422,-3.021484 v -0.002 c 0.57543,-1.151712 0.84766,-2.639156 0.84766,-4.462891 0,-1.63965 -0.33926,-3.071419 -1.0293,-4.271484 -0.70242,-1.221595 -1.90068,-2.165331 -3.54297,-2.839844 -1.15267,-0.472894 -2.48443,-0.748952 -3.99218,-0.835937 -1.486365,-0.114165 -3.207872,-0.171876 -5.169924,-0.171875 h -5.914062 l -15.876954,0.05469 z"
           id="path5300" />
        <path
           style="color:#000000;fill:#000000;stroke:#000000;stroke-width:1.875;stroke-linejoin:round;stroke-dasharray:none;stroke-opacity:1"
           d="m 100.125,11.882813 -0.0137,0.75 c 4.56109,0.07976 12.25497,2.339437 16.40234,6.382812 2.07369,2.021687 3.26815,4.4415 2.87305,7.302734 -0.3951,2.861235 -2.41643,6.224101 -6.95899,10.029297 l 0.48243,0.574219 c 4.62515,-3.874389 6.78737,-7.377982 7.21875,-10.501953 0.43137,-3.123972 -0.90454,-5.808988 -3.0918,-7.941406 -4.37453,-4.264836 -12.1244,-6.511979 -16.91211,-6.595703 z"
           id="path5341" />
      </g>
      <g
         id="g3975"
         style="stroke:#000000;stroke-width:1.875;stroke-linejoin:round;stroke-dasharray:none;stroke-opacity:1">
        <path
           style="color:#000000;-inkscape-font-specification:'sans-serif Bold';fill:#000000;stroke:#000000;stroke-width:1.875;stroke-linejoin:round;stroke-dasharray:none;stroke-opacity:1"
           d="M 137.74023,0.05859375 V 12.03125 h 10.38086 v 40.144531 h -10.38086 v 11.972656 h 37.83985 V 63.777344 52.175781 H 165.19922 V 12.03125 h 10.38086 V 0.05859375 Z m 0.74024,0.7421875 h 36.35742 V 11.291016 h -10.38086 v 41.626953 h 10.38086 V 63.40625 H 138.48047 V 52.917969 h 10.38086 V 11.291016 h -10.38086 z"
           id="path7007" />
        <path
           style="color:#000000;fill:#000000;stroke:#000000;stroke-width:1.875;stroke-linejoin:round;stroke-dasharray:none;stroke-opacity:1"
           d="m 148.86328,11.294922 -0.45703,0.591797 c 4.06988,3.148222 6.06911,6.255158 7.06836,9.410156 0.99925,3.154998 0.98845,6.380025 0.96289,9.738281 -0.0511,6.716513 -0.11499,13.98899 8.02148,21.88086 l 0.52149,-0.539063 c -7.9718,-7.732144 -7.84411,-14.616257 -7.79297,-21.335937 0.0256,-3.35984 0.0459,-6.674739 -0.99805,-9.970704 -1.04389,-3.295964 -3.16071,-6.553235 -7.32617,-9.77539 z"
           id="path5343" />
      </g>
      <g
         id="g3971"
         style="stroke:#000000;stroke-width:1.875;stroke-linejoin:round;stroke-dasharray:none;stroke-opacity:1">
        <path
           style="color:#000000;-inkscape-font-specification:'sans-serif Bold';fill:#000000;stroke:#000000;stroke-width:1.875;stroke-linejoin:round;stroke-dasharray:none;stroke-opacity:1"
           d="M 188.1543,0.05859375 V 64.148437 h 46.43359 V 63.777344 51.154297 H 205.23242 V 0.05859375 Z m 0.74218,0.7421875 h 15.59571 V 51.896484 h 29.35547 V 63.40625 h -44.95118 z"
           id="path7017" />
        <path
           style="color:#000000;fill:#000000;stroke:#000000;stroke-width:1.875;stroke-linejoin:round;stroke-dasharray:none;stroke-opacity:1"
           d="m 188.7793,0.15429687 -0.50782,0.55078125 c 8.05984,7.43402458 8.01929,16.16959288 7.99219,25.14062488 -0.0271,8.971032 -0.0414,18.17282 8.23242,26.046875 l 0.51563,-0.542969 c -8.0631,-7.673511 -8.02515,-16.530931 -7.99805,-25.501953 0.0271,-8.971021 0.0427,-18.0589522 -8.23437,-25.69335913 z"
           id="path5393" />
      </g>
      <g
         id="g5980"
         style="stroke:#000000;stroke-width:1.875;stroke-linejoin:round;stroke-dasharray:none;stroke-opacity:1">
        <path
           style="color:#000000;fill:#000000;stroke:#000000;stroke-width:1.875;stroke-linejoin:round;stroke-dasharray:none;stroke-opacity:1"
           d="m 16.152344,11.871094 c -0.437718,3.38e-4 -1.069337,0.0011 -1.832031,0.002 -1.52539,0.0016 -3.572662,0.0034 -5.6230474,0.0059 -4.1007701,0.0049 -8.21679685,0.0098 -8.21679685,0.0098 v 0.75 c 0,0 4.11801405,-0.0049 8.21875005,-0.0098 2.0503682,-0.0024 4.0957732,-0.0042 5.6210942,-0.0059 0.76266,-8.05e-4 1.39641,-0.0016 1.833984,-0.002 0.218787,-1.69e-4 0.388764,2e-5 0.501953,0 0.0566,-10e-6 0.09808,-3.1e-5 0.125,0 0.01346,1.5e-5 0.02241,-2.2e-5 0.02734,0 -0.007,-2.1e-4 -0.01953,-0.002 -0.01953,-0.002 0,0 0.01589,-0.747946 0.02148,-0.748047 -0.0068,-2.8e-5 -0.01635,1.5e-5 -0.0293,0 -0.02763,-3.2e-5 -0.06825,-1e-5 -0.125,0 -0.113496,2e-5 -0.285047,-1.7e-4 -0.503906,0 z m 0.658203,0 0.01367,0.75 c 0.0066,-1.2e-4 0.01758,-0.002 0.01758,-0.002 0,0 -0.01222,-0.747928 -0.01953,-0.748047 -0.0055,-9e-5 -0.0063,1.5e-5 -0.0098,0 -4.3e-4,-2e-6 -0.0015,2e-6 -0.002,0 z"
           id="path3365" />
        <path
           style="color:#000000;fill:#000000;stroke:#000000;stroke-width:1.875;stroke-linejoin:round;stroke-dasharray:none;stroke-opacity:1"
           d="m 16.810547,11.871094 0.01367,0.75 c 1.911694,-0.03551 3.722815,0.02003 5.451172,0.01563 15.69159,-0.03994 24.502985,5.853183 28.177734,14.382812 3.674749,8.52963 2.185157,19.797832 -3.046875,30.472656 l 0.671875,0.330079 C 53.376976,47.011111 54.940926,35.539178 51.142578,26.722656 47.34423,17.906134 38.155066,11.846297 22.273437,11.886719 c -1.710816,0.0044 -3.527962,-0.05157 -5.46289,-0.01563 z"
           id="path3491" />
        <path
           style="color:#000000;fill:#000000;stroke:#000000;stroke-width:1.875;stroke-linejoin:round;stroke-dasharray:none;stroke-opacity:1"
           d="M 0.10546875,0.0546875 V 12.263672 31.875 51.921875 64.152344 H 22.816406 c 5.066821,0 9.456353,-0.369396 13.175781,-1.113282 3.727225,-0.745444 7.159688,-2.066086 10.289063,-3.960937 4.16987,-2.530679 7.620443,-6.1556 10.341797,-10.853516 2.728456,-4.738898 4.091797,-10.100105 4.091797,-16.05664 0,-6.176836 -1.273242,-11.562424 -3.832032,-16.134766 l -0.002,-0.002 C 54.355937,11.441433 50.874658,7.7880618 46.455078,5.0898437 l -0.002,-0.00195 C 43.85699,3.4729238 40.671656,2.2405366 36.898437,1.3828125 h -0.002 C 33.115628,0.49507203 28.635634,0.0546875 23.453125,0.0546875 Z m 0.75,0.75 H 23.453125 c 5.140723,0 9.566903,0.4381199 13.273437,1.3085938 h 0.002 l 0.002,0.00195 c 3.712666,0.843788 6.821753,2.0505926 9.330078,3.6113281 h 0.002 c 4.314209,2.6333483 7.695763,6.1836996 10.162109,10.6679686 v 0.002 h 0.002 c 2.488931,4.446517 3.738282,9.696643 3.738282,15.771485 0,5.842353 -1.331729,11.060842 -3.992188,15.68164 -2.667561,4.605053 -6.02476,8.126733 -10.080078,10.587891 -3.053697,1.849027 -6.399794,3.137772 -10.046875,3.867187 -3.654878,0.730976 -7.998993,1.097657 -13.029297,1.097657 H 0.85546875 V 52.296875 c 0.35037145,-3.59e-4 3.93007435,-0.0041 7.84375005,-0.0078 2.0503912,-0.002 4.0957562,-0.0027 5.6210942,-0.0039 0.762668,-6.24e-4 1.396406,-0.0017 1.833984,-0.002 0.125144,-6.6e-5 0.195366,2.7e-5 0.287109,0 0.06865,-2e-5 0.166398,-3e-6 0.214844,0 h 0.154297 0.01367 0.01758 4.101562 c 3.896641,0 6.758243,-0.168295 8.621094,-0.517578 h 0.002 0.0039 c 1.853099,-0.376411 3.661603,-1.043815 5.421875,-1.996094 l 0.0039,-0.002 0.0039,-0.002 c 3.034187,-1.733821 5.277869,-4.062095 6.701172,-6.966797 l 0.002,-0.002 c 1.421171,-2.929352 2.121094,-6.518747 2.121094,-10.757813 0,-4.213505 -0.774298,-7.83259 -2.337891,-10.845703 l -0.002,-0.002 C 39.944236,18.141261 37.481565,15.753795 34.13284,14.050565 l -0.002,-0.002 -0.0039,-0.002 C 32.422198,13.208944 30.671286,12.645193 28.875,12.355469 27.10124,12.036084 24.46883,11.882812 20.943359,11.882813 h -4.126953 v 0.375 h -0.375 v 39.27539 c -0.09199,2.7e-5 -0.163514,-6.7e-5 -0.289062,0 -0.437724,2.33e-4 -1.069328,0.0013 -1.832031,0.002 -1.525408,0.0012 -3.572638,0.0019 -5.6230474,0.0039 -3.9136642,0.0037 -7.4913465,0.0075 -7.84179685,0.0078 V 31.875 12.263672 Z M 17.191406,12.632813 h 3.751953 c 3.505889,0 6.118236,0.156824 7.804688,0.460937 h 0.0039 l 0.0039,0.002 c 1.720691,0.277531 3.39897,0.817893 5.041016,1.625 3.22839,1.642939 5.555742,3.906717 7.021484,6.810547 v 0.002 l 0.002,0.002 c 1.498289,2.885593 2.253907,6.380506 2.253907,10.503906 0,4.156296 -0.688501,7.631727 -2.046875,10.431641 -1.355906,2.76589 -3.478622,4.973541 -6.398438,6.642578 -8.37e-4,4.79e-4 -0.0011,0.0015 -0.002,0.002 -1.697435,0.917346 -3.432478,1.553606 -5.207031,1.914063 -1.767836,0.330973 -4.604487,0.503906 -8.476563,0.503906 h -3.751953 z"
           id="path4453" />
        <path
           style="color:#000000;fill:#000000;stroke:#000000;stroke-width:1.875;stroke-linejoin:round;stroke-dasharray:none;stroke-opacity:1"
           d="M 0.70898437,11.966797 0.25,12.560547 c 4.0728975,3.150555 6.090002,6.1727 7.1113281,9.195312 1.0213262,3.022613 1.0428993,6.068176 1.0488282,9.25 0.011858,6.363648 0.01476,13.284613 8.1464847,21.171875 l 0.521484,-0.539062 C 9.1015759,43.901921 9.1720206,37.371165 9.1601563,31.003906 9.1542241,27.820277 9.1413213,24.679493 8.0722656,21.515625 7.00321,18.351757 4.8714287,15.18662 0.70898437,11.966797 Z"
           id="path5343-3" />
      </g>
      <g
         id="g3967"
         style="stroke:#000000;stroke-width:1.875;stroke-linejoin:round;stroke-dasharray:none;stroke-opacity:1">
        <path
           style="color:#000000;-inkscape-font-specification:'sans-serif Bold';fill:#000000;stroke:#000000;stroke-width:1.875;stroke-linejoin:round;stroke-dasharray:none;stroke-opacity:1"
           d="M 243.67383,0.05859375 V 64.148437 h 46.43554 V 63.777344 51.154297 H 260.75391 V 0.05859375 Z m 0.74219,0.7421875 h 15.5957 V 51.896484 h 29.35547 V 63.40625 h -44.95117 z"
           id="path7043" />
        <path
           style="color:#000000;fill:#000000;stroke:#000000;stroke-width:1.875;stroke-linejoin:round;stroke-dasharray:none;stroke-opacity:1"
           d="M 244.4082,0.05664062 243.90039,0.609375 c 8.05923,7.433467 7.99252,16.190509 7.9375,25.185547 -0.055,8.995038 -0.10058,18.223041 8.17383,26.097656 l 0.51758,-0.542969 c -8.06251,-7.672951 -7.99642,-16.555763 -7.94141,-25.550781 0.055,-8.995017 0.098,-18.1072225 -8.17969,-25.74218738 z"
           id="path5393-8" />
      </g>
    </g>
  </g>
</svg>
