<?xml version="1.0" standalone="no"?>
<!DOCTYPE svg PUBLIC "-//W3C//DTD SVG 20010904//EN"
 "http://www.w3.org/TR/2001/REC-SVG-20010904/DTD/svg10.dtd">
<svg version="1.0" xmlns="http://www.w3.org/2000/svg"
 width="64.000000pt" height="64.000000pt" viewBox="0 0 64.000000 64.000000"
 preserveAspectRatio="xMidYMid meet">

<g transform="translate(0.000000,64.000000) scale(0.100000,-0.100000)"
fill="#000000" stroke="none">
<path d="M69 611 c-28 -29 -29 -32 -29 -130 l0 -101 280 0 c242 0 280 2 280
15 0 12 -15 15 -75 15 l-75 0 0 86 c0 81 -1 87 -29 115 l-29 29 -147 0 -147 0
-29 -29z m329 -23 c7 -7 12 -44 12 -95 l0 -83 -165 0 -165 0 0 83 c0 51 5 88
12 95 17 17 289 17 306 0z"/>
<path d="M190 470 c0 -18 7 -20 55 -20 48 0 55 2 55 20 0 18 -7 20 -55 20 -48
0 -55 -2 -55 -20z"/>
<path d="M457 320 c-23 -18 -40 -20 -221 -20 l-196 0 0 -38 c0 -97 86 -223
173 -251 33 -11 42 -10 82 9 41 20 100 75 123 116 10 18 11 18 31 0 11 -10 41
-21 66 -23 l45 -6 0 49 c0 27 -6 59 -14 70 -12 17 -12 22 0 39 8 10 14 31 14
47 0 26 -3 28 -39 28 -23 0 -48 -8 -64 -20z m44 -40 c-24 -21 -41 -26 -41 -12
0 15 24 32 45 32 19 -1 19 -1 -4 -20z m-94 -56 c-9 -56 -54 -123 -105 -155
-25 -16 -51 -29 -57 -29 -6 0 -32 13 -57 29 -51 32 -96 99 -105 155 l-6 36
168 0 168 0 -6 -36z m98 -19 c30 -29 32 -55 5 -55 -26 0 -60 34 -60 60 0 27
26 25 55 -5z"/>
</g>
</svg>
